<svg xmlns="http://www.w3.org/2000/svg" viewBox="0 0 293.59 253.35"><defs><style>.cls-1{isolation:isolate;}.cls-2{fill:#438cc0;opacity:0.34;}.cls-3{fill:#1d1d1b;opacity:0.71;}.cls-11,.cls-3{mix-blend-mode:multiply;}.cls-4{fill:#7fbec1;}.cls-5{fill:#46a3ae;}.cls-6{fill:#00735d;}.cls-7{fill:#006250;}.cls-8{fill:#d6eefd;}.cls-9{fill:#fff;}.cls-10{fill:#afa084;}.cls-11{fill:#c3b6b0;}.cls-12{fill:#f8b056;}</style></defs><title>comingsoon</title><g class="cls-1"><g id="Capa_1" data-name="Capa 1"><path class="cls-2" d="M313.89,95.15c53.33,122.14-48,85.78-75,133.76C181.15,331.77-56.53,158.68,74.34,102.23,130.87,77.85,72.91-1.18,177.91,10.56,270.12,20.87,296.76,55.94,313.89,95.15Z" transform="translate(-35.57 -9.38)"/><path class="cls-3" d="M90.28,257c0,3.17,40.15,5.73,89.68,5.73s89.68-2.56,89.68-5.73-40.15-5.73-89.68-5.73S90.28,253.84,90.28,257Z" transform="translate(-35.57 -9.38)"/><path class="cls-4" d="M296.15,182.74c-22.63,43.49-76.74,60.13-76.74,60.13S202,189,224.61,145.52s76.74-60.14,76.74-60.14S318.77,139.25,296.15,182.74Z" transform="translate(-35.57 -9.38)"/><path class="cls-5" d="M219.41,242.87S202,189,224.61,145.52s76.74-60.14,76.74-60.14Z" transform="translate(-35.57 -9.38)"/><polygon class="cls-5" points="187.78 225.92 190.67 220.37 226.67 206.92 187.78 225.92"/><polygon class="cls-5" points="200.19 202.07 203.07 196.53 251.73 178.62 200.19 202.07"/><polygon class="cls-5" points="212.6 178.23 215.48 172.68 265.03 153.06 212.6 178.23"/><polygon class="cls-5" points="225 154.38 227.89 148.84 268.74 132.86 225 154.38"/><polygon class="cls-5" points="237.41 130.54 240.29 124.99 263.69 116.25 237.41 130.54"/><polygon class="cls-5" points="249.81 106.69 252.7 101.14 265.19 96.48 249.81 106.69"/><polygon class="cls-4" points="193.09 215.71 195.98 210.16 186.33 172.96 193.09 215.71"/><polygon class="cls-4" points="205.5 191.86 208.38 186.32 195.12 136.2 205.5 191.86"/><polygon class="cls-4" points="217.91 168.02 220.79 162.47 210.36 118.79 217.91 168.02"/><polygon class="cls-4" points="230.31 144.17 233.2 138.63 225.17 105.57 230.31 144.17"/><polygon class="cls-4" points="242.72 120.33 245.61 114.78 239.33 90.61 242.72 120.33"/><polygon class="cls-4" points="255.13 96.48 258.01 90.94 255.71 82.08 255.13 96.48"/><path class="cls-6" d="M65.87,207.26c30.3,38.54,86.57,44.85,86.57,44.85s7.12-56.16-23.19-94.7-86.56-44.85-86.56-44.85S35.57,168.73,65.87,207.26Z" transform="translate(-35.57 -9.38)"/><path class="cls-7" d="M152.44,252.11s7.12-56.16-23.19-94.7-86.56-44.85-86.56-44.85Z" transform="translate(-35.57 -9.38)"/><polygon class="cls-7" points="111.58 236.02 107.72 231.1 69.84 224.57 111.58 236.02"/><polygon class="cls-7" points="94.97 214.89 91.1 209.97 39.97 201.41 94.97 214.89"/><polygon class="cls-7" points="78.35 193.76 74.49 188.85 22.16 178.77 78.35 193.76"/><polygon class="cls-7" points="61.73 172.63 57.87 167.72 14.77 159.59 61.73 172.63"/><polygon class="cls-7" points="45.12 151.5 41.25 146.59 16.64 142.34 45.12 151.5"/><polygon class="cls-7" points="28.5 130.38 24.64 125.46 11.51 123.19 28.5 130.38"/><polygon class="cls-6" points="104.47 226.97 100.61 222.06 103.19 183.71 104.47 226.97"/><polygon class="cls-6" points="87.86 205.84 83.99 200.93 87.72 149.22 87.86 205.84"/><polygon class="cls-6" points="71.24 184.72 67.37 179.8 69.52 134.94 71.24 184.72"/><polygon class="cls-6" points="54.62 163.59 50.76 158.67 52.52 124.7 54.62 163.59"/><polygon class="cls-6" points="38.01 142.46 34.14 137.54 35.82 112.63 38.01 142.46"/><polygon class="cls-6" points="21.39 121.33 17.53 116.42 18.14 107.29 21.39 121.33"/><path class="cls-8" d="M244.89,83.64V30.07H115.48V83.64c0,32.33,40.58,34,40.58,51.51s-40.58,19.17-40.58,51.5v53.57H244.89V186.65c0-32.33-40.59-33.27-40.59-51.5S244.89,116,244.89,83.64Z" transform="translate(-35.57 -9.38)"/><path class="cls-9" d="M222.6,83.64V30.07H137.77V83.64c0,32.33,26.61,34,26.61,51.51s-26.61,19.17-26.61,51.5v53.57H222.6V186.65c0-32.33-26.61-33.27-26.61-51.5S222.6,116,222.6,83.64Z" transform="translate(-35.57 -9.38)"/><path class="cls-10" d="M182.57,191.66V133.79c0-19.82,57.17-25.61,50.24-48.56H126.63c-3.2,18.46,47.32,24.89,47.32,49.92v59.23c0,15.12-53.79,22.89-46.86,45.84H233.28C236.76,220.14,182.57,206.78,182.57,191.66Z" transform="translate(-35.57 -9.38)"/><path class="cls-11" d="M181.3,204.21V124.63c0-19.81,44.86-16.45,41.3-39.4H147.85c-1.65,18.46,32.09,16.12,32.09,41.15v77.83c0,15.11-42.57,13.06-39,36h78.8C221.52,220.14,181.3,219.32,181.3,204.21Z" transform="translate(-35.57 -9.38)"/><rect class="cls-12" x="73.68" y="228.57" width="141.87" height="16.42"/><rect class="cls-12" x="73.68" y="4.27" width="141.87" height="16.42"/><path class="cls-9" d="M246.26,19.24a2.62,2.62,0,0,1-2.62,2.61H116.26a2.61,2.61,0,0,1-2.62-2.61h0a2.62,2.62,0,0,1,2.62-2.62H243.64a2.62,2.62,0,0,1,2.62,2.62Z" transform="translate(-35.57 -9.38)"/><path class="cls-9" d="M246.26,242.85a2.62,2.62,0,0,1-2.62,2.61H116.26a2.61,2.61,0,0,1-2.62-2.61h0a2.62,2.62,0,0,1,2.62-2.63H243.64a2.63,2.63,0,0,1,2.62,2.63Z" transform="translate(-35.57 -9.38)"/></g></g></svg>